<?xml version="1.0" encoding="UTF-8"?>
<!DOCTYPE svg PUBLIC "-//W3C//DTD SVG 1.1//EN" "http://www.w3.org/Graphics/SVG/1.1/DTD/svg11.dtd">
<svg xmlns="http://www.w3.org/2000/svg" version="1.1" width="512px" height="512px" style="shape-rendering:geometricPrecision; text-rendering:geometricPrecision; image-rendering:optimizeQuality; fill-rule:evenodd; clip-rule:evenodd" xmlns:xlink="http://www.w3.org/1999/xlink">
<g><path style="opacity:0.995" fill="#2e4256" d="M 104.5,15.5 C 206.223,15.0067 307.89,15.5067 409.5,17C 416.149,20.3141 420.649,25.4808 423,32.5C 423.984,75.5592 423.65,118.559 422,161.5C 418.686,168.149 413.519,172.649 406.5,175C 365.496,175.167 324.496,175.667 283.5,176.5C 276.141,186.026 268.974,195.692 262,205.5C 257.667,208.167 253.333,208.167 249,205.5C 242.026,195.692 234.859,186.026 227.5,176.5C 185.445,175.984 143.445,175.151 101.5,174C 94.8513,170.686 90.3513,165.519 88,158.5C 87.3333,116.5 87.3333,74.5 88,32.5C 91.0191,24.3156 96.5191,18.649 104.5,15.5 Z"/></g>
<g><path style="opacity:1" fill="#00b277" d="M 108.5,31.5 C 206.501,31.3333 304.501,31.5 402.5,32C 404.667,32.8333 406.167,34.3333 407,36.5C 407.667,75.8333 407.667,115.167 407,154.5C 406.167,156.667 404.667,158.167 402.5,159C 360.5,159.333 318.5,159.667 276.5,160C 275.069,160.465 273.903,161.299 273,162.5C 267.327,170.333 261.494,177.999 255.5,185.5C 249.506,177.999 243.673,170.333 238,162.5C 236.829,161.107 235.329,160.273 233.5,160C 191.833,159.667 150.167,159.333 108.5,159C 106.333,158.167 104.833,156.667 104,154.5C 103.333,115.167 103.333,75.8333 104,36.5C 105.025,34.313 106.525,32.6464 108.5,31.5 Z"/></g>
<g><path style="opacity:1" fill="#2e4356" d="M 168.5,47.5 C 183.837,47.3334 199.17,47.5001 214.5,48C 246.805,56.7696 259.639,77.6029 253,110.5C 246.153,129.014 232.986,139.847 213.5,143C 198.5,143.667 183.5,143.667 168.5,143C 139.82,136.148 126.32,117.981 128,88.5C 133.018,66.3159 146.518,52.6493 168.5,47.5 Z"/></g>
<g><path style="opacity:1" fill="#2f4357" d="M 343.5,47.5 C 358.597,47.0326 373.597,47.5326 388.5,49C 389.701,49.9025 390.535,51.0692 391,52.5C 391.5,66.8295 391.667,81.1628 391.5,95.5C 386.167,95.5 380.833,95.5 375.5,95.5C 375.666,88.825 375.5,82.1583 375,75.5C 363.138,87.6964 350.971,99.5297 338.5,111C 335.697,111.755 333.03,111.422 330.5,110C 326.985,106.318 323.318,102.818 319.5,99.5C 305.681,112.819 292.014,126.319 278.5,140C 277.5,140.667 276.5,140.667 275.5,140C 272.667,137.167 269.833,134.333 267,131.5C 266.333,130.5 266.333,129.5 267,128.5C 282.833,112.667 298.667,96.8333 314.5,81C 317.03,79.5783 319.697,79.245 322.5,80C 326.982,83.6475 331.315,87.4808 335.5,91.5C 344.986,82.5144 354.319,73.3477 363.5,64C 356.842,63.5004 350.175,63.3337 343.5,63.5C 343.5,58.1667 343.5,52.8333 343.5,47.5 Z"/></g>
<g><path style="opacity:1" fill="#bbeada" d="M 168.5,63.5 C 194.336,62.5055 207.17,74.8388 207,100.5C 201.857,120.287 189.024,129.12 168.5,127C 150.128,120.772 141.961,107.939 144,88.5C 147.683,75.6514 155.85,67.3181 168.5,63.5 Z"/></g>
<g><path style="opacity:1" fill="#57caa4" d="M 212.5,65.5 C 225.692,66.3125 234.359,73.3125 238.5,86.5C 233.208,87.4948 227.875,87.8282 222.5,87.5C 221.302,79.11 217.969,71.7767 212.5,65.5 Z"/></g>
<g><path style="opacity:1" fill="#58caa5" d="M 222.5,103.5 C 227.844,103.334 233.177,103.501 238.5,104C 234.637,117.209 225.97,124.543 212.5,126C 217.874,119.418 221.207,111.918 222.5,103.5 Z"/></g>
<g><path style="opacity:0.991" fill="#2e4255" d="M 119.5,248.5 C 119.5,258.833 119.5,269.167 119.5,279.5C 114.167,279.5 108.833,279.5 103.5,279.5C 103.667,257.164 103.5,234.831 103,212.5C 99.9867,207.465 95.8201,206.298 90.5,209C 89.2986,209.903 88.4652,211.069 88,212.5C 87.5,234.831 87.3334,257.164 87.5,279.5C 82.1667,279.5 76.8333,279.5 71.5,279.5C 71.5,269.167 71.5,258.833 71.5,248.5C 71.0514,234.094 71.5514,219.761 73,205.5C 81.8425,190.955 94.0092,187.455 109.5,195C 113.092,197.921 115.925,201.421 118,205.5C 119.449,219.761 119.949,234.094 119.5,248.5 Z"/></g>
<g><path style="opacity:0.998" fill="#2e4256" d="M 399.5,439.5 C 399.5,436.833 399.5,434.167 399.5,431.5C 426.167,431.5 452.833,431.5 479.5,431.5C 479.5,420.833 479.5,410.167 479.5,399.5C 460.833,399.5 442.167,399.5 423.5,399.5C 423.5,394.167 423.5,388.833 423.5,383.5C 442.167,383.5 460.833,383.5 479.5,383.5C 479.5,372.833 479.5,362.167 479.5,351.5C 460.833,351.5 442.167,351.5 423.5,351.5C 423.5,346.167 423.5,340.833 423.5,335.5C 442.167,335.5 460.833,335.5 479.5,335.5C 479.5,324.833 479.5,314.167 479.5,303.5C 450.167,303.5 420.833,303.5 391.5,303.5C 391.5,298.167 391.5,292.833 391.5,287.5C 420.833,287.5 450.167,287.5 479.5,287.5C 479.5,276.833 479.5,266.167 479.5,255.5C 447.5,255.5 415.5,255.5 383.5,255.5C 383.5,252.833 383.5,250.167 383.5,247.5C 383.5,244.833 383.5,242.167 383.5,239.5C 391.5,239.5 399.5,239.5 407.5,239.5C 407.333,224.83 407.5,210.163 408,195.5C 408.5,193.667 409.667,192.5 411.5,192C 424.833,191.333 438.167,191.333 451.5,192C 452.416,192.374 453.25,192.874 454,193.5C 455.468,208.737 455.968,224.07 455.5,239.5C 467.505,239.333 479.505,239.5 491.5,240C 493.333,240.5 494.5,241.667 495,243.5C 495.667,310.167 495.667,376.833 495,443.5C 494.5,445.333 493.333,446.5 491.5,447C 479.505,447.5 467.505,447.667 455.5,447.5C 455.667,462.17 455.5,476.837 455,491.5C 454.5,493.333 453.333,494.5 451.5,495C 438.167,495.667 424.833,495.667 411.5,495C 410.584,494.626 409.75,494.126 409,493.5C 407.532,478.263 407.032,462.93 407.5,447.5C 404.833,447.5 402.167,447.5 399.5,447.5C 399.5,444.833 399.5,442.167 399.5,439.5 Z"/></g>
<g><path style="opacity:1" fill="#00a16b" d="M 423.5,207.5 C 428.833,207.5 434.167,207.5 439.5,207.5C 439.5,218.167 439.5,228.833 439.5,239.5C 434.167,239.5 428.833,239.5 423.5,239.5C 423.5,228.833 423.5,218.167 423.5,207.5 Z"/></g>
<g><path style="opacity:1" fill="#586367" d="M 103.5,279.5 C 98.1667,279.5 92.8333,279.5 87.5,279.5C 87.3334,257.164 87.5,234.831 88,212.5C 88.4652,211.069 89.2986,209.903 90.5,209C 95.8201,206.298 99.9867,207.465 103,212.5C 103.5,234.831 103.667,257.164 103.5,279.5 Z"/></g>
<g><path style="opacity:0.986" fill="#2e4256" d="M 375.5,269.5 C 377.087,272.268 378.92,274.935 381,277.5C 381.847,281.072 381.347,284.406 379.5,287.5C 377.638,289.891 376.304,292.558 375.5,295.5C 369.251,302.085 367.418,309.752 370,318.5C 370.935,321.595 372.769,323.929 375.5,325.5C 376.219,327.888 377.885,329.388 380.5,330C 388.622,331.863 396.622,334.03 404.5,336.5C 405.315,337.429 406.148,338.429 407,339.5C 407.499,343.486 407.666,347.486 407.5,351.5C 407.666,360.506 407.5,369.506 407,378.5C 406.003,380.323 404.836,381.99 403.5,383.5C 394.275,385.223 385.275,387.723 376.5,391C 375.748,391.671 375.414,392.504 375.5,393.5C 368.893,399.167 367.06,406.167 370,414.5C 371.357,417.898 373.19,420.898 375.5,423.5C 377.931,428.886 380.264,434.219 382.5,439.5C 382.291,440.922 381.791,442.255 381,443.5C 372.137,452.697 362.97,461.531 353.5,470C 351.5,470.667 349.5,470.667 347.5,470C 339.733,465.231 331.733,460.898 323.5,457C 313.576,455.712 306.409,459.545 302,468.5C 299.843,476.129 297.843,483.795 296,491.5C 295.167,493 294,494.167 292.5,495C 278.122,495.816 263.788,495.649 249.5,494.5C 248.667,493.5 247.833,492.5 247,491.5C 245.106,482.254 242.439,473.254 239,464.5C 232.941,457.257 225.441,455.09 216.5,458C 210,461.833 203.5,465.667 197,469.5C 195.277,467.283 193.777,464.95 192.5,462.5C 191.263,459.838 190.429,457.171 190,454.5C 197.507,448.829 205.674,444.329 214.5,441C 242.663,438.32 257.996,451.153 260.5,479.5C 267.833,479.5 275.167,479.5 282.5,479.5C 284.859,451.679 299.859,438.845 327.5,441C 335.235,443.875 342.568,447.208 349.5,451C 354.349,446.319 359.015,441.485 363.5,436.5C 358.94,430.047 355.44,423.047 353,415.5C 350.844,387.862 363.678,372.862 391.5,370.5C 391.5,363.167 391.5,355.833 391.5,348.5C 363.355,345.838 350.521,330.505 353,302.5C 356.136,295.234 359.469,288.234 363,281.5C 358.319,276.651 353.485,271.985 348.5,267.5C 342.047,272.06 335.047,275.56 327.5,278C 299.904,280.169 284.904,267.336 282.5,239.5C 275.167,239.5 267.833,239.5 260.5,239.5C 256.44,270.741 239.107,282.908 208.5,276C 202.249,272.292 196.083,268.459 190,264.5C 190.429,261.829 191.263,259.162 192.5,256.5C 193.777,254.05 195.277,251.717 197,249.5C 203.5,253.333 210,257.167 216.5,261C 225.441,263.91 232.941,261.743 239,254.5C 242.439,245.746 245.106,236.746 247,227.5C 247.833,226.5 248.667,225.5 249.5,224.5C 263.788,223.351 278.122,223.184 292.5,224C 294,224.833 295.167,226 296,227.5C 297.843,235.205 299.843,242.871 302,250.5C 306.409,259.455 313.576,263.288 323.5,262C 332.242,256.962 341.242,252.462 350.5,248.5C 352.299,248.577 353.966,249.077 355.5,250C 362.035,256.703 368.702,263.203 375.5,269.5 Z"/></g>
<g><path style="opacity:0.999" fill="#4383d0" d="M 192.5,462.5 C 186.833,457.5 181.5,452.167 176.5,446.5C 175.538,439.588 175.205,432.588 175.5,425.5C 182.221,417.601 184.054,408.601 181,398.5C 179.884,395.244 178.051,392.578 175.5,390.5C 175.5,369.833 175.5,349.167 175.5,328.5C 182.359,321.04 184.193,312.374 181,302.5C 179.643,299.102 177.81,296.102 175.5,293.5C 175.205,286.412 175.538,279.412 176.5,272.5C 181.5,266.833 186.833,261.5 192.5,256.5C 191.263,259.162 190.429,261.829 190,264.5C 196.083,268.459 202.249,272.292 208.5,276C 239.107,282.908 256.44,270.741 260.5,239.5C 267.833,239.5 275.167,239.5 282.5,239.5C 284.904,267.336 299.904,280.169 327.5,278C 335.047,275.56 342.047,272.06 348.5,267.5C 353.485,271.985 358.319,276.651 363,281.5C 359.469,288.234 356.136,295.234 353,302.5C 350.521,330.505 363.355,345.838 391.5,348.5C 391.5,355.833 391.5,363.167 391.5,370.5C 363.678,372.862 350.844,387.862 353,415.5C 355.44,423.047 358.94,430.047 363.5,436.5C 359.015,441.485 354.349,446.319 349.5,451C 342.568,447.208 335.235,443.875 327.5,441C 299.859,438.845 284.859,451.679 282.5,479.5C 275.167,479.5 267.833,479.5 260.5,479.5C 257.996,451.153 242.663,438.32 214.5,441C 205.674,444.329 197.507,448.829 190,454.5C 190.429,457.171 191.263,459.838 192.5,462.5 Z M 263.5,320.5 C 287.471,318.327 302.971,328.661 310,351.5C 312.086,379.748 299.086,395.748 271,399.5C 243.434,395.27 230.767,379.27 233,351.5C 237.349,335.319 247.516,324.985 263.5,320.5 Z"/></g>
<g><path style="opacity:0.993" fill="#2e4256" d="M 55.5,252.5 C 56.6448,255.073 57.1448,257.739 57,260.5C 51.347,262.575 45.847,265.075 40.5,268C 28.5,275.667 28.5,283.333 40.5,291C 57.7297,299.874 76.063,304.04 95.5,303.5C 114.905,303.898 133.238,299.731 150.5,291C 162.393,283.244 162.393,275.578 150.5,268C 145.153,265.075 139.653,262.575 134,260.5C 133.855,257.739 134.355,255.073 135.5,252.5C 135.599,249.395 136.599,246.728 138.5,244.5C 148.839,247.502 158.172,252.335 166.5,259C 170.488,263.2 173.822,267.7 176.5,272.5C 175.538,279.412 175.205,286.412 175.5,293.5C 175.5,305.167 175.5,316.833 175.5,328.5C 175.5,349.167 175.5,369.833 175.5,390.5C 175.5,402.167 175.5,413.833 175.5,425.5C 175.205,432.588 175.538,439.588 176.5,446.5C 175.887,453.398 175.053,460.398 174,467.5C 167.949,476.54 159.783,483.04 149.5,487C 125.789,495.039 101.455,497.706 76.5,495C 57.9702,493.712 40.9702,488.046 25.5,478C 20.9686,474.429 17.802,469.929 16,464.5C 15.3333,400.5 15.3333,336.5 16,272.5C 17.3105,267.876 19.6438,263.876 23,260.5C 31.9438,252.192 42.2772,247.192 54,245.5C 54.662,247.813 55.162,250.146 55.5,252.5 Z"/></g>
<g><path style="opacity:1" fill="#31c191" d="M 383.5,247.5 C 383.5,250.167 383.5,252.833 383.5,255.5C 415.5,255.5 447.5,255.5 479.5,255.5C 479.5,266.167 479.5,276.833 479.5,287.5C 450.167,287.5 420.833,287.5 391.5,287.5C 387.5,287.5 383.5,287.5 379.5,287.5C 381.347,284.406 381.847,281.072 381,277.5C 378.92,274.935 377.087,272.268 375.5,269.5C 375.5,262.167 375.5,254.833 375.5,247.5C 378.167,247.5 380.833,247.5 383.5,247.5 Z"/></g>
<g><path style="opacity:0.998" fill="#455156" d="M 71.5,248.5 C 71.5,258.833 71.5,269.167 71.5,279.5C 76.8333,279.5 82.1667,279.5 87.5,279.5C 92.8333,279.5 98.1667,279.5 103.5,279.5C 108.833,279.5 114.167,279.5 119.5,279.5C 119.5,269.167 119.5,258.833 119.5,248.5C 124.905,249.518 130.239,250.851 135.5,252.5C 134.355,255.073 133.855,257.739 134,260.5C 139.653,262.575 145.153,265.075 150.5,268C 162.393,275.578 162.393,283.244 150.5,291C 133.238,299.731 114.905,303.898 95.5,303.5C 76.063,304.04 57.7297,299.874 40.5,291C 28.5,283.333 28.5,275.667 40.5,268C 45.847,265.075 51.347,262.575 57,260.5C 57.1448,257.739 56.6448,255.073 55.5,252.5C 60.7612,250.851 66.0945,249.518 71.5,248.5 Z"/></g>
<g><path style="opacity:1" fill="#00b277" d="M 379.5,287.5 C 383.5,287.5 387.5,287.5 391.5,287.5C 391.5,292.833 391.5,298.167 391.5,303.5C 386.167,303.5 380.833,303.5 375.5,303.5C 375.5,300.833 375.5,298.167 375.5,295.5C 376.304,292.558 377.638,289.891 379.5,287.5 Z"/></g>
<g><path style="opacity:0.98" fill="#2e4256" d="M 261.5,303.5 C 293.773,301.318 315.273,315.318 326,345.5C 331.159,380.039 317.325,402.872 284.5,414C 249.81,418.917 227.31,404.75 217,371.5C 213.029,336.425 227.862,313.759 261.5,303.5 Z M 263.5,320.5 C 247.516,324.985 237.349,335.319 233,351.5C 230.767,379.27 243.434,395.27 271,399.5C 299.086,395.748 312.086,379.748 310,351.5C 302.971,328.661 287.471,318.327 263.5,320.5 Z"/></g>
<g><path style="opacity:1" fill="#31c191" d="M 375.5,303.5 C 380.833,303.5 386.167,303.5 391.5,303.5C 420.833,303.5 450.167,303.5 479.5,303.5C 479.5,314.167 479.5,324.833 479.5,335.5C 460.833,335.5 442.167,335.5 423.5,335.5C 416.978,335.177 410.645,335.51 404.5,336.5C 396.622,334.03 388.622,331.863 380.5,330C 377.885,329.388 376.219,327.888 375.5,325.5C 375.5,318.167 375.5,310.833 375.5,303.5 Z"/></g>
<g><path style="opacity:1" fill="#697376" d="M 31.5,304.5 C 51.1645,314.728 72.1645,319.728 94.5,319.5C 117.398,320.289 138.898,315.289 159,304.5C 159.667,342.167 159.667,379.833 159,417.5C 157.221,421.612 154.388,424.778 150.5,427C 131.758,436.149 111.925,440.315 91,439.5C 71.7208,439.847 53.8875,435.013 37.5,425C 34.8941,423.062 33.0608,420.562 32,417.5C 31.5,379.835 31.3333,342.168 31.5,304.5 Z"/></g>
<g><path style="opacity:1" fill="#2e4256" d="M 47.5,327.5 C 52.8333,327.5 58.1667,327.5 63.5,327.5C 63.5,356.833 63.5,386.167 63.5,415.5C 58.1667,415.5 52.8333,415.5 47.5,415.5C 47.5,386.167 47.5,356.833 47.5,327.5 Z"/></g>
<g><path style="opacity:1" fill="#2e4256" d="M 127.5,327.5 C 132.833,327.5 138.167,327.5 143.5,327.5C 143.5,356.833 143.5,386.167 143.5,415.5C 138.167,415.5 132.833,415.5 127.5,415.5C 127.5,386.167 127.5,356.833 127.5,327.5 Z"/></g>
<g><path style="opacity:1" fill="#2e4256" d="M 87.5,335.5 C 92.8333,335.5 98.1667,335.5 103.5,335.5C 103.5,364.833 103.5,394.167 103.5,423.5C 98.1667,423.5 92.8333,423.5 87.5,423.5C 87.5,394.167 87.5,364.833 87.5,335.5 Z"/></g>
<g><path style="opacity:1" fill="#00b277" d="M 404.5,336.5 C 410.645,335.51 416.978,335.177 423.5,335.5C 423.5,340.833 423.5,346.167 423.5,351.5C 418.167,351.5 412.833,351.5 407.5,351.5C 407.666,347.486 407.499,343.486 407,339.5C 406.148,338.429 405.315,337.429 404.5,336.5 Z"/></g>
<g><path style="opacity:1" fill="#31c191" d="M 407.5,351.5 C 412.833,351.5 418.167,351.5 423.5,351.5C 442.167,351.5 460.833,351.5 479.5,351.5C 479.5,362.167 479.5,372.833 479.5,383.5C 460.833,383.5 442.167,383.5 423.5,383.5C 416.833,383.5 410.167,383.5 403.5,383.5C 404.836,381.99 406.003,380.323 407,378.5C 407.5,369.506 407.666,360.506 407.5,351.5 Z"/></g>
<g><path style="opacity:1" fill="#01b177" d="M 403.5,383.5 C 410.167,383.5 416.833,383.5 423.5,383.5C 423.5,388.833 423.5,394.167 423.5,399.5C 407.5,399.5 391.5,399.5 375.5,399.5C 375.5,397.5 375.5,395.5 375.5,393.5C 375.414,392.504 375.748,391.671 376.5,391C 385.275,387.723 394.275,385.223 403.5,383.5 Z"/></g>
<g><path style="opacity:1" fill="#31c191" d="M 375.5,399.5 C 391.5,399.5 407.5,399.5 423.5,399.5C 442.167,399.5 460.833,399.5 479.5,399.5C 479.5,410.167 479.5,420.833 479.5,431.5C 452.833,431.5 426.167,431.5 399.5,431.5C 399.5,434.167 399.5,436.833 399.5,439.5C 393.833,439.5 388.167,439.5 382.5,439.5C 380.264,434.219 377.931,428.886 375.5,423.5C 375.5,415.5 375.5,407.5 375.5,399.5 Z"/></g>
<g><path style="opacity:1" fill="#455156" d="M 31.5,440.5 C 36.3272,443.079 41.3272,445.412 46.5,447.5C 47.6649,455.479 47.8316,463.479 47,471.5C 41.7765,468.943 37.1098,465.609 33,461.5C 31.5753,454.615 31.0753,447.615 31.5,440.5 Z"/></g>
<g><path style="opacity:1" fill="#455156" d="M 157.5,440.5 C 164.156,455.701 159.49,465.701 143.5,470.5C 143.169,462.804 143.503,455.138 144.5,447.5C 149.342,445.915 153.675,443.582 157.5,440.5 Z"/></g>
<g><path style="opacity:1" fill="#00a16b" d="M 423.5,447.5 C 428.833,447.5 434.167,447.5 439.5,447.5C 439.5,458.167 439.5,468.833 439.5,479.5C 434.167,479.5 428.833,479.5 423.5,479.5C 423.5,468.833 423.5,458.167 423.5,447.5 Z"/></g>
<g><path style="opacity:1" fill="#455156" d="M 63.5,452.5 C 71.4243,454.026 79.4243,455.026 87.5,455.5C 87.5,463.5 87.5,471.5 87.5,479.5C 79.4446,478.935 71.4446,477.935 63.5,476.5C 63.5,468.5 63.5,460.5 63.5,452.5 Z"/></g>
<g><path style="opacity:1" fill="#455156" d="M 124.5,452.5 C 125.5,452.5 126.5,452.5 127.5,452.5C 127.5,460.5 127.5,468.5 127.5,476.5C 119.528,477.686 111.528,478.686 103.5,479.5C 103.5,471.5 103.5,463.5 103.5,455.5C 110.714,455.059 117.714,454.059 124.5,452.5 Z"/></g>
</svg>
